<?xml version="1.0" encoding="UTF-8"?><svg id="Layer_2" xmlns="http://www.w3.org/2000/svg" viewBox="0 0 118.14 125.12"><defs><style>.cls-1{fill:#159bd7;}.cls-2{fill:#8f9194;}.cls-3{fill:#ee7623;}.cls-4{fill:#ffca10;}.cls-5{fill:#3fab60;}.cls-6{fill:#55b58c;}</style></defs><g id="Layer_1"><path class="cls-1" d="M79.48,17.29L69.93.75c-.34-.38-.8-.64-1.3-.75h-19.1c-.5.11-.95.38-1.29.76l-9.55,16.55c-.17.48-.17,1.01,0,1.5l9.55,16.55c.34.38.8.64,1.29.75h19.1c.5-.11.96-.37,1.3-.75l9.56-16.55c.16-.49.16-1.02,0-1.5"/><path class="cls-4" d="M40.93,39.55l-9.55-16.56c-.34-.38-.8-.63-1.3-.73H10.97c-.5.11-.96.37-1.3.75L.11,39.56c-.15.49-.15,1.01,0,1.5l9.55,16.55c.34.38.8.65,1.3.75h19.1c.51-.11.97-.37,1.31-.75l9.54-16.53c.15-.49.15-1.02,0-1.5"/><path class="cls-2" d="M40.93,84.06l-9.55-16.54c-.34-.38-.8-.64-1.3-.75H10.97c-.5.11-.95.37-1.3.75L.11,84.08c-.15.49-.15,1.01,0,1.5l9.55,16.55c.34.38.8.63,1.3.74h19.1c.5-.11.96-.37,1.31-.75l9.54-16.56c.15-.48.15-1.01,0-1.49"/><path class="cls-6" d="M79.49,106.32l-9.55-16.54c-.34-.38-.8-.63-1.3-.74h-19.1c-.5.11-.95.37-1.29.76l-9.55,16.53c-.16.49-.16,1.02,0,1.51l9.56,16.54c.34.38.79.64,1.29.74h19.1c.5-.1.96-.36,1.3-.75l9.56-16.55c.15-.49.15-1.01,0-1.5"/><path class="cls-5" d="M118.02,39.55l-9.55-16.56c-.34-.38-.8-.63-1.3-.73h-19.1c-.5.11-.96.37-1.3.75l-9.55,16.55c-.16.48-.16,1.02,0,1.5l9.54,16.55c.34.38.8.64,1.3.75h19.1c.5-.1.96-.36,1.29-.75l9.55-16.53c.16-.49.16-1.02,0-1.5"/><path class="cls-3" d="M118.02,84.06l-9.55-16.54c-.34-.38-.8-.64-1.3-.75h-19.1c-.5.11-.96.37-1.3.75l-9.55,16.55c-.16.48-.16,1.01,0,1.5l9.54,16.55c.34.38.8.63,1.3.74h19.1c.5-.11.95-.37,1.29-.75l9.55-16.56c.16-.48.16-1.01,0-1.49"/></g></svg>